<svg width="94" height="105" viewBox="0 0 94 105" fill="none" xmlns="http://www.w3.org/2000/svg">
<g id="FileIcon">
<g id="Page" filter="url(#filter0_di_264_213)">
<path d="M55.5869 8.21211C54.8846 7.50979 53.932 7.11523 52.9388 7.11523H22.545C20.0281 7.11523 18.7697 7.11523 17.8084 7.60505C16.9628 8.03591 16.2753 8.72341 15.8444 9.56901C15.3546 10.5303 15.3546 11.7888 15.3546 14.3057V86.8093C15.3546 89.3261 15.3546 90.5846 15.8444 91.5459C16.2753 92.3915 16.9628 93.079 17.8084 93.5099C18.7697 93.9997 20.0281 93.9997 22.545 93.9997H73.3275C75.8444 93.9997 77.1028 93.9997 78.0641 93.5099C78.9098 93.079 79.5972 92.3915 80.0281 91.5459C80.5179 90.5846 80.5179 89.3261 80.5179 86.8093V34.6941C80.5179 33.7009 80.1234 32.7483 79.421 32.046L55.5869 8.21211Z" fill="url(#paint0_linear_264_213)"/>
</g>
<g id="BLEND" filter="url(#filter1_d_264_213)">
<text fill="black" fill-opacity="0.51" shape-rendering="crispEdges" xml:space="preserve" style="white-space: pre" font-family="Noto Sans SC" font-size="16.4781" font-weight="bold" letter-spacing="0em"><tspan x="20.2301" y="84.722">BLEND</tspan></text>
</g>
<g id="iconList" filter="url(#filter2_d_264_213)">
<path id="icon" d="M55.8955 45.7C55.878 42.7261 57.2254 40.4848 59.9464 38.8322C58.4246 36.6519 56.1222 35.4528 53.0873 35.2217C50.2137 34.995 47.0698 36.8961 45.9186 36.8961C44.7021 36.8961 41.9201 35.3002 39.7311 35.3002C35.2136 35.37 30.4127 38.902 30.4127 46.0881C30.4127 48.2116 30.8008 50.405 31.5769 52.6637C32.6147 55.6376 36.356 62.924 40.2587 62.8062C42.2994 62.7583 43.7427 61.3586 46.3983 61.3586C48.9753 61.3586 50.3097 62.8062 52.5858 62.8062C56.5234 62.7496 59.9071 56.126 60.8926 53.1434C55.612 50.6535 55.8955 45.8526 55.8955 45.7V45.7ZM51.3126 32.4005C53.5234 29.7754 53.3228 27.3859 53.2574 26.5269C51.3039 26.6402 49.0451 27.8568 47.7588 29.3525C46.3416 30.9571 45.5087 32.9412 45.6875 35.1781C47.798 35.3394 49.7254 34.2537 51.3126 32.4005V32.4005Z" fill="black"/>
</g>
<g id="PageCorn" filter="url(#filter3_d_264_213)">
<path fill-rule="evenodd" clip-rule="evenodd" d="M55.2802 7.93725C55.0276 7.73485 54.751 7.56707 54.4579 7.43701V25.9845C54.4579 28.5014 54.4579 29.7599 54.9477 30.7212C55.3786 31.5668 56.0661 32.2543 56.9117 32.6851C57.873 33.175 59.1315 33.175 61.6484 33.175H80.196C80.0662 32.8823 79.8987 32.6061 79.6968 32.3538L55.2802 7.93725Z" fill="url(#paint1_linear_264_213)"/>
</g>
</g>
<defs>
<filter id="filter0_di_264_213" x="12.3586" y="5.61723" width="71.1554" height="107.107" filterUnits="userSpaceOnUse" color-interpolation-filters="sRGB">
<feFlood flood-opacity="0" result="BackgroundImageFix"/>
<feColorMatrix in="SourceAlpha" type="matrix" values="0 0 0 0 0 0 0 0 0 0 0 0 0 0 0 0 0 0 127 0" result="hardAlpha"/>
<feOffset dy="1.49801"/>
<feGaussianBlur stdDeviation="1.49801"/>
<feComposite in2="hardAlpha" operator="out"/>
<feColorMatrix type="matrix" values="0 0 0 0 0 0 0 0 0 0 0 0 0 0 0 0 0 0 0.45 0"/>
<feBlend mode="normal" in2="BackgroundImageFix" result="effect1_dropShadow_264_213"/>
<feBlend mode="normal" in="SourceGraphic" in2="effect1_dropShadow_264_213" result="shape"/>
<feColorMatrix in="SourceAlpha" type="matrix" values="0 0 0 0 0 0 0 0 0 0 0 0 0 0 0 0 0 0 127 0" result="hardAlpha"/>
<feOffset dy="52.0558"/>
<feGaussianBlur stdDeviation="9.36255"/>
<feComposite in2="hardAlpha" operator="arithmetic" k2="-1" k3="1"/>
<feColorMatrix type="matrix" values="0 0 0 0 0.554861 0 0 0 0 0.625458 0 0 0 0 0.708333 0 0 0 0.05 0"/>
<feBlend mode="normal" in2="shape" result="effect2_innerShadow_264_213"/>
</filter>
<filter id="filter1_d_264_213" x="20.2316" y="70.8291" width="55.5948" height="15.2065" filterUnits="userSpaceOnUse" color-interpolation-filters="sRGB">
<feFlood flood-opacity="0" result="BackgroundImageFix"/>
<feColorMatrix in="SourceAlpha" type="matrix" values="0 0 0 0 0 0 0 0 0 0 0 0 0 0 0 0 0 0 127 0" result="hardAlpha"/>
<feOffset/>
<feGaussianBlur stdDeviation="0.749004"/>
<feComposite in2="hardAlpha" operator="out"/>
<feColorMatrix type="matrix" values="0 0 0 0 0 0 0 0 0 0 0 0 0 0 0 0 0 0 0.28 0"/>
<feBlend mode="normal" in2="BackgroundImageFix" result="effect1_dropShadow_264_213"/>
<feBlend mode="normal" in="SourceGraphic" in2="effect1_dropShadow_264_213" result="shape"/>
</filter>
<filter id="filter2_d_264_213" x="22.4701" y="21.3462" width="47.1873" height="47.1874" filterUnits="userSpaceOnUse" color-interpolation-filters="sRGB">
<feFlood flood-opacity="0" result="BackgroundImageFix"/>
<feColorMatrix in="SourceAlpha" type="matrix" values="0 0 0 0 0 0 0 0 0 0 0 0 0 0 0 0 0 0 127 0" result="hardAlpha"/>
<feOffset/>
<feGaussianBlur stdDeviation="0.749004"/>
<feComposite in2="hardAlpha" operator="out"/>
<feColorMatrix type="matrix" values="0 0 0 0 0.00534719 0 0 0 0 0.298054 0 0 0 0 0.641667 0 0 0 0.45 0"/>
<feBlend mode="normal" in2="BackgroundImageFix" result="effect1_dropShadow_264_213"/>
<feBlend mode="normal" in="SourceGraphic" in2="effect1_dropShadow_264_213" result="shape"/>
</filter>
<filter id="filter3_d_264_213" x="47.7169" y="3.69199" width="36.2242" height="36.2238" filterUnits="userSpaceOnUse" color-interpolation-filters="sRGB">
<feFlood flood-opacity="0" result="BackgroundImageFix"/>
<feColorMatrix in="SourceAlpha" type="matrix" values="0 0 0 0 0 0 0 0 0 0 0 0 0 0 0 0 0 0 127 0" result="hardAlpha"/>
<feOffset dx="-1.49801" dy="1.49801"/>
<feGaussianBlur stdDeviation="2.62151"/>
<feComposite in2="hardAlpha" operator="out"/>
<feColorMatrix type="matrix" values="0 0 0 0 0 0 0 0 0 0 0 0 0 0 0 0 0 0 0.29 0"/>
<feBlend mode="normal" in2="BackgroundImageFix" result="effect1_dropShadow_264_213"/>
<feBlend mode="normal" in="SourceGraphic" in2="effect1_dropShadow_264_213" result="shape"/>
</filter>
<linearGradient id="paint0_linear_264_213" x1="47.9363" y1="7.11523" x2="47.9363" y2="93.9997" gradientUnits="userSpaceOnUse">
<stop stop-color="#F7F7F7"/>
<stop offset="1" stop-color="white"/>
</linearGradient>
<linearGradient id="paint1_linear_264_213" x1="68.3466" y1="21.1586" x2="56.1753" y2="33.3299" gradientUnits="userSpaceOnUse">
<stop stop-color="#DDDDDD"/>
<stop offset="0.197917" stop-color="#EDEDED"/>
<stop offset="0.40625" stop-color="#F7F7F7"/>
<stop offset="0.630208" stop-color="#FBFBFB"/>
<stop offset="1" stop-color="white"/>
</linearGradient>
</defs>
</svg>
